# xmcd
#
# Track frame offsets: 
#        150
#        22847
#        44267
#        65294
#        87159
#        108053
#        127623
#        147775
#        167724
#        200407
#
# Disc length: 2884 seconds
#
# Revision: 0
# Processed by: cddbd v1.5.2PL0 Copyright (c) Steve Scherf et al.
# Submitted via: ExactAudioCopyFreeDBPlugin 1.0
#
DISCID=710b420a
DTITLE=odani misako - 小谷美紗子 - us
DYEAR=2014
DGENRE=JPop
TTITLE0=enter
TTITLE1=正体
TTITLE2=誰か
TTITLE3=手の中
TTITLE4=runrunrun
TTITLE5=果てに
TTITLE6=universe
TTITLE7=東へ
TTITLE8=すだちの花
TTITLE9=recognize
EXTD=
EXTT0=
EXTT1=
EXTT2=
EXTT3=
EXTT4=
EXTT5=
EXTT6=
EXTT7=
EXTT8=
EXTT9=
PLAYORDER=
